<svg width="10" height="5" viewBox="0 0 10 5" fill="none" xmlns="http://www.w3.org/2000/svg">
<mask id="path-1-inside-1_80_134" fill="white">
<path d="M9.89555 0.569047L5.25351 4.90225C5.11425 5.03258 4.88575 5.03258 4.74649 4.90225L0.104446 0.569047C-0.0348153 0.439051 -0.0348153 0.227743 0.104446 0.0977471C0.243707 -0.0325824 0.472211 -0.0325824 0.611472 0.0977471L5 4.19528L9.38853 0.0977471C9.52779 -0.0325824 9.75629 -0.0325824 9.89555 0.0977471C10.0348 0.227743 10.0348 0.439051 9.89555 0.569047Z"/>
</mask>
<path d="M9.89555 0.569047L5.25351 4.90225C5.11425 5.03258 4.88575 5.03258 4.74649 4.90225L0.104446 0.569047C-0.0348153 0.439051 -0.0348153 0.227743 0.104446 0.0977471C0.243707 -0.0325824 0.472211 -0.0325824 0.611472 0.0977471L5 4.19528L9.38853 0.0977471C9.52779 -0.0325824 9.75629 -0.0325824 9.89555 0.0977471C10.0348 0.227743 10.0348 0.439051 9.89555 0.569047Z" fill="white"/>
<path d="M9.89555 0.569047L10.5779 1.30005L10.5779 1.30005L9.89555 0.569047ZM5.25351 4.90225L4.57114 4.17125L4.57021 4.17212L5.25351 4.90225ZM4.74649 4.90225L5.42979 4.17212L5.42886 4.17125L4.74649 4.90225ZM0.104446 0.569047L-0.577926 1.30005L-0.577926 1.30005L0.104446 0.569047ZM0.104446 0.0977471L0.786818 0.828753L0.787751 0.82788L0.104446 0.0977471ZM0.611472 0.0977471L-0.0718336 0.827881L-0.0709868 0.828671L0.611472 0.0977471ZM5 4.19528L4.31754 4.92621L5 5.56341L5.68246 4.92621L5 4.19528ZM9.38853 0.0977471L10.071 0.828672L10.0718 0.82788L9.38853 0.0977471ZM9.89555 0.0977471L9.21225 0.827881L9.21318 0.828753L9.89555 0.0977471ZM9.21318 -0.161959L4.57114 4.17125L5.93588 5.63326L10.5779 1.30005L9.21318 -0.161959ZM4.57021 4.17212C4.81543 3.94263 5.18457 3.94263 5.42979 4.17212L4.06318 5.63239C4.58693 6.12254 5.41307 6.12254 5.93682 5.63239L4.57021 4.17212ZM5.42886 4.17125L0.786818 -0.161959L-0.577926 1.30005L4.06412 5.63326L5.42886 4.17125ZM0.786818 -0.161959C1.07106 0.103374 1.07106 0.56342 0.786818 0.828753L-0.577926 -0.633258C-1.14069 -0.107933 -1.14069 0.774727 -0.577926 1.30005L0.786818 -0.161959ZM0.787751 0.82788C0.54253 1.05737 0.173387 1.05737 -0.0718332 0.82788L1.29478 -0.632386C0.771034 -1.12254 -0.0551159 -1.12254 -0.578859 -0.632386L0.787751 0.82788ZM-0.0709868 0.828671L4.31754 4.92621L5.68246 3.46436L1.29393 -0.633177L-0.0709868 0.828671ZM5.68246 4.92621L10.071 0.828671L8.70607 -0.633177L4.31754 3.46436L5.68246 4.92621ZM10.0718 0.82788C9.82661 1.05737 9.45747 1.05737 9.21225 0.82788L10.5789 -0.632386C10.0551 -1.12254 9.22897 -1.12254 8.70522 -0.632386L10.0718 0.82788ZM9.21318 0.828753C8.92894 0.56342 8.92894 0.103374 9.21318 -0.161959L10.5779 1.30005C11.1407 0.774727 11.1407 -0.107933 10.5779 -0.633258L9.21318 0.828753Z" fill="white" mask="url(#path-1-inside-1_80_134)"/>
</svg>
