<svg width="22" height="28" viewBox="0 0 22 28" fill="none" xmlns="http://www.w3.org/2000/svg">
<path fill-rule="evenodd" clip-rule="evenodd" d="M11 6C8.24 6 6 8.24 6 11C6 13.76 8.24 16 11 16C13.76 16 16 13.76 16 11C16 8.24 13.76 6 11 6ZM8 11C8 9.34 9.34 8 11 8C12.66 8 14 9.34 14 11C14 12.66 12.66 14 11 14C9.34 14 8 12.66 8 11Z" fill="white"/>
<path fill-rule="evenodd" clip-rule="evenodd" d="M10.38 27.79C10.38 27.79 10.38 27.79 11 27L10.38 27.79C10.74 28.07 11.26 28.07 11.62 27.79L11 27C11.62 27.79 11.62 27.79 11.62 27.79V27.78H11.63L11.65 27.76C11.68 27.74 11.71 27.7201 11.74 27.6801C11.82 27.6201 11.93 27.53 12.08 27.41C12.36 27.17 12.76 26.82 13.24 26.37C14.2 25.48 15.49 24.2 16.77 22.64C19.31 19.58 22 15.2699 22 10.6899C22 4.75994 17.05 0 11 0C4.95 0 0 4.75994 0 10.6899C0 15.2699 2.68998 19.58 5.22998 22.64C6.50998 24.2 7.80001 25.48 8.76001 26.37C9.24001 26.82 9.64004 27.17 9.92004 27.41C10.07 27.53 10.18 27.6201 10.26 27.6801C10.29 27.7201 10.32 27.74 10.35 27.76L10.37 27.78H10.38V27.79ZM2 10.6899C2 5.91994 6 2 11 2C16 2 20 5.91994 20 10.6899C20 14.5399 17.69 18.39 15.23 21.37C14.01 22.84 12.8 24.06 11.88 24.9C11.54 25.22 11.24 25.49 11 25.7C10.76 25.49 10.46 25.22 10.12 24.9C9.2 24.06 7.99002 22.84 6.77002 21.37C4.31002 18.39 2 14.5399 2 10.6899Z" fill="white"/>
</svg>
