<svg width="17" height="22" viewBox="0 0 17 22" fill="none" xmlns="http://www.w3.org/2000/svg">
<path d="M6.6306 12.3333V13.7294C6.63184 13.8983 6.51447 14.0417 6.35774 14.0627L3.54801 14.436C2.44753 14.582 1.62396 15.5853 1.63237 16.7667V21H2.25677L2.2571 16.764C2.25085 15.9183 2.83902 15.2017 3.62546 15.0973L6.43519 14.724C6.90659 14.6613 7.25876 14.2313 7.25503 13.7267V12.3333H6.6306Z" fill="#F85858" fill-opacity="0.5"/>
<path d="M13.4572 14.4524L10.6481 14.0794C10.491 14.058 10.3736 13.915 10.3749 13.7433V12.3333H9.75048V13.741C9.74675 14.2477 10.0992 14.6777 10.5706 14.741L13.3804 15.114C14.1665 15.2186 14.7549 15.935 14.7487 16.7833V21H15.3731V16.7857C15.3815 15.6017 14.558 14.5983 13.4572 14.4524Z" fill="#F85858" fill-opacity="0.5"/>
<path d="M12.2461 6.33301H11.934V6.99969H12.2461C12.5905 6.99969 12.8705 7.29867 12.8705 7.66637C12.8705 8.03402 12.5905 8.33304 12.2461 8.33304H11.934V8.99968H12.2461C12.9349 8.99968 13.4949 8.40168 13.4949 7.66637C13.4949 6.93106 12.9349 6.33301 12.2461 6.33301Z" fill="#F85858" fill-opacity="0.5"/>
<path d="M11.0234 14.2018L10.8236 14.6985C10.425 15.6915 9.51367 16.3332 8.50187 16.3332H8.49906C7.48722 16.3332 6.57625 15.6915 6.17758 14.6985L5.97779 14.2018L5.40399 14.4648L5.60378 14.9612C6.10079 16.1998 7.23687 16.9998 8.49876 16.9998H8.5022C9.76377 16.9998 10.9002 16.1998 11.3975 14.9615L11.5973 14.4648L11.0234 14.2018Z" fill="#F85858" fill-opacity="0.5"/>
<path d="M11.623 6.31294L11.4509 9.31859C11.3813 11.0089 10.0851 12.3332 8.50037 12.3332C6.91569 12.3332 5.61944 11.0089 5.54953 9.31289L5.37783 6.3129L4.75468 6.35356L4.92608 9.34789C5.0107 11.3955 6.58071 12.9999 8.50037 12.9999C10.42 12.9999 11.9901 11.3959 12.0744 9.35355L12.2461 6.35356L11.623 6.31294Z" fill="#F85858" fill-opacity="0.5"/>
<path d="M8.69804 3.40907C8.58283 3.30841 8.4174 3.30841 8.30248 3.40907L4.86835 6.40906L5.26391 6.92507L8.50041 4.09774L11.7369 6.92507L12.1321 6.40906L8.69804 3.40907Z" fill="#F85858" fill-opacity="0.5"/>
<path d="M4.75441 6.99969H5.06659V6.33301H4.75441C4.0657 6.33301 3.50565 6.93102 3.50565 7.66633C3.50565 8.40164 4.06574 8.99964 4.75441 8.99964H5.06659V8.33297H4.75441C4.41007 8.33297 4.13002 8.03398 4.13002 7.66629C4.13002 7.29867 4.41007 6.99969 4.75441 6.99969Z" fill="#F85858" fill-opacity="0.5"/>
<path d="M8.50044 1C5.9183 1 3.81754 3.243 3.81754 5.99998V6.99998H4.44194V5.99998C4.44194 3.61066 6.26264 1.66668 8.50044 1.66668C10.7382 1.66668 12.559 3.61066 12.559 5.99998V6.99998H13.1834V5.99998C13.1833 3.243 11.0826 1 8.50044 1Z" fill="#F85858" fill-opacity="0.5"/>
<path d="M8.81215 1.33302H8.18775V3.66634H8.81215V1.33302Z" fill="#F85858" fill-opacity="0.5"/>
<path d="M2.56896 9.33799C2.57116 9.47998 2.59018 9.62064 2.62578 9.75666C1.81191 10.0377 1.25713 10.8923 1.33674 11.8393C1.36608 12.1873 1.48004 12.5183 1.66421 12.8013C1.38543 13.052 1.18155 13.3843 1.07666 13.7663C0.935841 14.279 0.99017 14.8193 1.23024 15.288C1.43036 15.6786 1.75066 15.9906 2.13342 16.1663L2.38037 15.5533C2.1253 15.4363 1.91175 15.2283 1.77847 14.9679C1.61863 14.6553 1.58241 14.2953 1.67607 13.9533C1.76972 13.6113 1.98265 13.3293 2.27548 13.1586C2.36288 13.1076 2.42222 13.0147 2.43532 12.9093C2.44841 12.804 2.41315 12.6983 2.34104 12.6247C2.12156 12.4017 1.98576 12.1017 1.95861 11.7793C1.89678 11.047 2.40444 10.3976 3.0903 10.3317C3.19801 10.3213 3.29291 10.2523 3.34131 10.1493C3.38971 10.0467 3.38503 9.92396 3.32851 9.82564C3.24235 9.67564 3.19552 9.50365 3.19332 9.33299C3.19332 8.78166 3.61354 8.33299 4.1299 8.33299L4.13002 7.66629C3.26932 7.66629 2.56896 8.41432 2.56896 9.33799Z" fill="#F85858" fill-opacity="0.5"/>
<path d="M15.3368 12.8017C15.521 12.5187 15.635 12.1877 15.6646 11.8394C15.7446 10.8924 15.1892 10.0377 14.3753 9.75673C14.4112 9.61974 14.4302 9.47775 14.4324 9.33306C14.4324 8.41408 13.7322 7.66639 12.8714 7.66639V8.33307C13.3878 8.33307 13.808 8.78174 13.808 9.32806C13.8055 9.50408 13.7587 9.67607 13.6728 9.82572C13.6163 9.92404 13.6113 10.0464 13.66 10.1494C13.7087 10.2524 13.8033 10.3214 13.911 10.3317C14.5969 10.3977 15.1045 11.0474 15.0427 11.7794C15.0156 12.1017 14.8794 12.402 14.6603 12.6247C14.5879 12.6981 14.5529 12.8041 14.566 12.9094C14.5788 13.0147 14.6385 13.1077 14.7259 13.1587C15.3303 13.5114 15.5532 14.3227 15.2232 14.968C15.0896 15.2284 14.8757 15.4364 14.621 15.5534L14.8679 16.166C15.25 15.9907 15.5706 15.6787 15.7711 15.288C16.2044 14.4411 16.0021 13.4024 15.3368 12.8017Z" fill="#F85858" fill-opacity="0.5"/>
<path d="M1.71429 20.2593H15.2857V21H1.71429V20.2593Z" fill="#F85858" fill-opacity="0.5"/>
<path d="M4.13002 7.66629C4.13002 8.03398 4.41007 8.33297 4.75441 8.33297H5.06659V8.99964H4.75441C4.06574 8.99964 3.50565 8.40164 3.50565 7.66633C3.50565 6.93102 4.0657 6.33301 4.75441 6.33301H5.06659V6.99969H4.75441C4.41007 6.99969 4.13002 7.29867 4.13002 7.66629ZM4.13002 7.66629L4.1299 8.33299C3.61354 8.33299 3.19332 8.78166 3.19332 9.33299C3.19552 9.50365 3.24235 9.67564 3.32851 9.82564C3.38503 9.92396 3.38971 10.0467 3.34131 10.1493C3.29291 10.2523 3.19801 10.3213 3.0903 10.3317C2.40444 10.3976 1.89678 11.047 1.95861 11.7793C1.98576 12.1017 2.12156 12.4017 2.34104 12.6247C2.41315 12.6983 2.44841 12.804 2.43532 12.9093C2.42222 13.0147 2.36288 13.1076 2.27548 13.1586C1.98265 13.3293 1.76972 13.6113 1.67607 13.9533C1.58241 14.2953 1.61863 14.6553 1.77847 14.9679C1.91175 15.2283 2.1253 15.4363 2.38037 15.5533L2.13342 16.1663C1.75066 15.9906 1.43036 15.6786 1.23024 15.288C0.99017 14.8193 0.935841 14.279 1.07666 13.7663C1.18155 13.3843 1.38543 13.052 1.66421 12.8013C1.48004 12.5183 1.36608 12.1873 1.33674 11.8393C1.25713 10.8923 1.81191 10.0377 2.62578 9.75666C2.59018 9.62064 2.57116 9.47998 2.56896 9.33799C2.56896 8.41432 3.26932 7.66629 4.13002 7.66629ZM6.6306 12.3333V13.7294C6.63184 13.8983 6.51447 14.0417 6.35774 14.0627L3.54801 14.436C2.44753 14.582 1.62396 15.5853 1.63237 16.7667V21H2.25677L2.2571 16.764C2.25085 15.9183 2.83902 15.2017 3.62546 15.0973L6.43519 14.724C6.90659 14.6613 7.25876 14.2313 7.25503 13.7267V12.3333H6.6306ZM13.4572 14.4524L10.6481 14.0794C10.491 14.058 10.3736 13.915 10.3749 13.7433V12.3333H9.75048V13.741C9.74675 14.2477 10.0992 14.6777 10.5706 14.741L13.3804 15.114C14.1665 15.2186 14.7549 15.935 14.7487 16.7833V21H15.3731V16.7857C15.3815 15.6017 14.558 14.5983 13.4572 14.4524ZM12.2461 6.33301H11.934V6.99969H12.2461C12.5905 6.99969 12.8705 7.29867 12.8705 7.66637C12.8705 8.03402 12.5905 8.33304 12.2461 8.33304H11.934V8.99968H12.2461C12.9349 8.99968 13.4949 8.40168 13.4949 7.66637C13.4949 6.93106 12.9349 6.33301 12.2461 6.33301ZM11.0234 14.2018L10.8236 14.6985C10.425 15.6915 9.51367 16.3332 8.50187 16.3332H8.49906C7.48722 16.3332 6.57625 15.6915 6.17758 14.6985L5.97779 14.2018L5.40399 14.4648L5.60378 14.9612C6.10079 16.1998 7.23687 16.9998 8.49876 16.9998H8.5022C9.76377 16.9998 10.9002 16.1998 11.3975 14.9615L11.5973 14.4648L11.0234 14.2018ZM11.623 6.31294L11.4509 9.31859C11.3813 11.0089 10.0851 12.3332 8.50037 12.3332C6.91569 12.3332 5.61944 11.0089 5.54953 9.31289L5.37783 6.3129L4.75468 6.35356L4.92608 9.34789C5.0107 11.3955 6.58071 12.9999 8.50037 12.9999C10.42 12.9999 11.9901 11.3959 12.0744 9.35355L12.2461 6.35356L11.623 6.31294ZM8.69804 3.40907C8.58283 3.30841 8.4174 3.30841 8.30248 3.40907L4.86835 6.40906L5.26391 6.92507L8.50041 4.09774L11.7369 6.92507L12.1321 6.40906L8.69804 3.40907ZM8.50044 1C5.9183 1 3.81754 3.243 3.81754 5.99998V6.99998H4.44194V5.99998C4.44194 3.61066 6.26264 1.66668 8.50044 1.66668C10.7382 1.66668 12.559 3.61066 12.559 5.99998V6.99998H13.1834V5.99998C13.1833 3.243 11.0826 1 8.50044 1ZM8.18775 1.33302H8.81215V3.66634H8.18775V1.33302ZM15.3368 12.8017C15.521 12.5187 15.635 12.1877 15.6646 11.8394C15.7446 10.8924 15.1892 10.0377 14.3753 9.75673C14.4112 9.61974 14.4302 9.47775 14.4324 9.33306C14.4324 8.41408 13.7322 7.66639 12.8714 7.66639V8.33307C13.3878 8.33307 13.808 8.78174 13.808 9.32806C13.8055 9.50408 13.7587 9.67607 13.6728 9.82572C13.6163 9.92404 13.6113 10.0464 13.66 10.1494C13.7087 10.2524 13.8033 10.3214 13.911 10.3317C14.5969 10.3977 15.1045 11.0474 15.0427 11.7794C15.0156 12.1017 14.8794 12.402 14.6603 12.6247C14.5879 12.6981 14.5529 12.8041 14.566 12.9094C14.5788 13.0147 14.6385 13.1077 14.7259 13.1587C15.3303 13.5114 15.5532 14.3227 15.2232 14.968C15.0896 15.2284 14.8757 15.4364 14.621 15.5534L14.8679 16.166C15.25 15.9907 15.5706 15.6787 15.7711 15.288C16.2044 14.4411 16.0021 13.4024 15.3368 12.8017ZM1.71429 20.2593H15.2857V21H1.71429V20.2593Z" stroke="#F85858" stroke-opacity="0.5" stroke-width="0.4"/>
</svg>
