<svg width="20" height="20" viewBox="0 0 20 20" fill="none" xmlns="http://www.w3.org/2000/svg">
<path fill-rule="evenodd" clip-rule="evenodd" d="M10 7.14282C7.63572 7.14282 5.71429 9.06139 5.71429 11.4285C5.71429 13.7957 7.63572 15.7143 10 15.7143C12.3643 15.7143 14.2857 13.7957 14.2857 11.4285C14.2857 9.06139 12.3643 7.14282 10 7.14282ZM7.14287 11.4285C7.14287 9.85068 8.42144 8.57139 10 8.57139C11.5786 8.57139 12.8572 9.85068 12.8572 11.4285C12.8572 13.0064 11.5786 14.2857 10 14.2857C8.42144 14.2857 7.14287 13.0064 7.14287 11.4285Z" fill="#F8A058" fill-opacity="0.5"/>
<path fill-rule="evenodd" clip-rule="evenodd" d="M20 16.4286V7.64858C20 5.79143 18.4929 4.28571 16.6357 4.28571C15.9072 4.28571 15.2358 3.87142 14.9072 3.21642L14.2857 1.97427C13.6786 0.764269 12.4429 0 11.0929 0H8.90712C7.55712 0 6.32143 0.764269 5.71429 1.97427L5.09277 3.21642C4.7642 3.87142 4.09283 4.28571 3.36426 4.28571C1.50712 4.28571 0 5.79143 0 7.64858V16.4286C0 18.4007 1.6 20 3.57143 20H16.4286C18.4 20 20 18.4007 20 16.4286ZM18.5714 7.64858V16.4286C18.5714 17.6121 17.6143 18.5714 16.4286 18.5714H3.57143C2.38571 18.5714 1.42857 17.6121 1.42857 16.4286V7.64858C1.42857 6.58001 2.29283 5.71429 3.36426 5.71429C4.63569 5.71429 5.79994 4.99427 6.37137 3.85498L6.99289 2.61287C7.35717 1.88716 8.09998 1.42857 8.90712 1.42857H11.0929C11.9 1.42857 12.6428 1.88716 13.0071 2.61287L13.6286 3.85498C14.2001 4.99427 15.3643 5.71429 16.6357 5.71429C17.7072 5.71429 18.5714 6.58072 18.5714 7.64858Z" fill="#F8A058" fill-opacity="0.5"/>
</svg>
