<svg width="27" height="17" viewBox="0 0 27 17" fill="none" xmlns="http://www.w3.org/2000/svg">
<path d="M25.7406 2.33786C25.5796 2.24704 25.3805 2.2435 25.2163 2.3288L19.4802 5.31107V3.52167C19.4785 2.12963 18.2938 1.00158 16.8319 1H3.64831C2.18636 1.00158 1.00166 2.12963 1 3.52167V13.4783C1.00166 14.8704 2.18636 15.9984 3.64831 16H16.8319C18.2938 15.9984 19.4785 14.8704 19.4802 13.4783V11.7214L25.2165 14.7037C25.3805 14.789 25.5798 14.7857 25.7406 14.6948C25.9015 14.6038 26 14.4389 26 14.261V2.77147C26 2.59338 25.9013 2.42868 25.7406 2.33786ZM18.4205 13.4785C18.4196 14.3138 17.7087 14.9905 16.8315 14.9915H3.64831C2.77105 14.9905 2.06036 14.3138 2.05932 13.4785V3.52167C2.06036 2.68656 2.77105 2.00965 3.64831 2.00867H16.8319C17.7089 2.00965 18.4198 2.68656 18.4209 3.52167L18.4205 13.4785ZM24.9407 13.4112L19.4802 10.5723V6.46021L24.9407 3.62155V13.4112Z" fill="#49C8C8" fill-opacity="0.5" stroke="#49C8C8" stroke-opacity="0.5" stroke-width="0.3"/>
</svg>
